<?xml version="1.0" encoding="UTF-8"?>
<svg xmlns="http://www.w3.org/2000/svg" viewBox="0 0 64 64" width="64" height="64">
  <defs>
    <linearGradient id="gradient-icon" x1="0%" y1="0%" x2="100%" y2="100%">
      <stop offset="0%" style="stop-color:#667eea;stop-opacity:1" />
      <stop offset="100%" style="stop-color:#764ba2;stop-opacity:1" />
    </linearGradient>
  </defs>
  
  <!-- Background circle -->
  <circle cx="32" cy="32" r="30" fill="url(#gradient-icon)"/>
  
  <!-- Speech bubble icon -->
  <g id="icon" transform="translate(16, 16)">
    <!-- Main bubble -->
    <path d="M4 6 C4 3, 6 3, 8 3 L20 3 C22 3, 24 5, 24 8 L24 14 C24 17, 22 19, 20 19 L12 19 L8 23 L9 19 L8 19 C6 19, 4 17, 4 14 Z" 
          fill="white" stroke="none"/>
    
    <!-- Comment dots -->
    <circle cx="10" cy="11" r="1.5" fill="url(#gradient-icon)"/>
    <circle cx="14" cy="11" r="1.5" fill="url(#gradient-icon)"/>
    <circle cx="18" cy="11" r="1.5" fill="url(#gradient-icon)"/>
    
    <!-- Connection lines representing web/network -->
    <g stroke="white" stroke-width="1.5" fill="none" opacity="0.8">
      <line x1="24" y1="8" x2="28" y2="6"/>
      <line x1="24" y1="14" x2="28" y2="16"/>
      <circle cx="28" cy="6" r="1" fill="white"/>
      <circle cx="28" cy="16" r="1" fill="white"/>
    </g>
  </g>
</svg>